<svg width="77" height="77" viewBox="0 0 77 77" fill="none" xmlns="http://www.w3.org/2000/svg">
<g filter="url(#filter0_d_2090_379)">
<path d="M4.75 34.0833C4.75 37.59 5.35 40.9567 6.45667 44.0833M6.45667 44.0833H34.75M6.45667 44.0833C8.52513 49.9338 12.3569 54.9989 17.4241 58.5808C22.4913 62.1628 28.5446 64.0852 34.75 64.0833C29.6033 64.0833 25.3633 52.4167 24.81 37.4167M41.4633 24.0833H69.7567M69.7567 24.0833C67.6882 18.2328 63.8564 13.1677 58.7892 9.58582C53.722 6.00391 47.6687 4.08146 41.4633 4.08333C46.7967 4.08333 51.16 16.6233 51.4467 32.4167M69.7567 24.0833C70.6833 26.7133 71.2567 29.51 71.4167 32.4167M4.75 11.74C4.75 8.08333 4.75 6.25 5.37333 4.83C6.04 3.32333 7.18 2.11333 8.6 1.41333C9.94 0.75 11.6667 0.75 15.1167 0.75H18.0833C24.37 0.75 27.51 0.75 29.4633 2.81667C31.4167 4.89333 31.4167 8.21667 31.4167 14.8833V22.4133C31.4167 25.3167 31.4167 26.77 30.5367 27.27C29.6567 27.77 28.5167 26.9633 26.2367 25.35L25.8867 25.1067C24.22 23.9267 23.3867 23.34 22.44 23.0367C21.4967 22.7333 20.4933 22.7333 18.49 22.7333H15.1233C11.6667 22.7333 9.94 22.7333 8.6 22.07C7.15607 21.3461 6.01356 20.1363 5.37333 18.6533C4.75 17.2333 4.75 15.4033 4.75 11.74ZM71.4167 51.74C71.4167 48.08 71.4167 46.25 70.7933 44.83C70.1531 43.3471 69.0106 42.1373 67.5667 41.4133C66.2267 40.75 64.5 40.75 61.05 40.75H58.0833C51.7967 40.75 48.6567 40.75 46.7033 42.8167C44.75 44.8933 44.75 48.2167 44.75 54.8833V62.4133C44.75 65.3167 44.75 66.77 45.63 67.27C46.51 67.77 47.65 66.9633 49.93 65.35L50.28 65.1067C51.9467 63.9267 52.78 63.34 53.7267 63.0367C54.67 62.7333 55.6733 62.7333 57.6767 62.7333H61.0433C64.5 62.7333 66.2267 62.7333 67.5667 62.07C68.9867 61.37 70.13 60.16 70.7933 58.6533C71.4167 57.2333 71.4167 55.4033 71.4167 51.74Z" stroke="white" stroke-width="1.5" stroke-linecap="round" stroke-linejoin="round" shape-rendering="crispEdges"/>
</g>
<defs>
<filter id="filter0_d_2090_379" x="0" y="0" width="76.167" height="76.168" filterUnits="userSpaceOnUse" color-interpolation-filters="sRGB">
<feFlood flood-opacity="0" result="BackgroundImageFix"/>
<feColorMatrix in="SourceAlpha" type="matrix" values="0 0 0 0 0 0 0 0 0 0 0 0 0 0 0 0 0 0 127 0" result="hardAlpha"/>
<feOffset dy="4"/>
<feGaussianBlur stdDeviation="2"/>
<feComposite in2="hardAlpha" operator="out"/>
<feColorMatrix type="matrix" values="0 0 0 0 0 0 0 0 0 0 0 0 0 0 0 0 0 0 0.25 0"/>
<feBlend mode="normal" in2="BackgroundImageFix" result="effect1_dropShadow_2090_379"/>
<feBlend mode="normal" in="SourceGraphic" in2="effect1_dropShadow_2090_379" result="shape"/>
</filter>
</defs>
</svg>
